<?xml version="1.0" standalone="no"?><!DOCTYPE svg PUBLIC "-//W3C//DTD SVG 1.1//EN" "http://www.w3.org/Graphics/SVG/1.1/DTD/svg11.dtd"><svg t="1763608526621" class="icon" viewBox="0 0 1024 1024" version="1.1" xmlns="http://www.w3.org/2000/svg" p-id="6083" id="mx_n_1763608526622" xmlns:xlink="http://www.w3.org/1999/xlink" width="200" height="200"><path d="M954.91469 199.385698c-142.917728-62.20359-302.688252-62.498301-442.90855-1.727338-140.248951-60.770964-300.059384-60.475229-442.948459 1.727338l-17.275421 7.513099v664.698469l40.250646-17.527154c135.543798-59.014974 287.940393-55.87036 418.48535 8.314347l0.533141 1.066282c0.280385-0.168845 0.619099-0.279362 0.955766-0.44923 0.280385 0.169868 0.619099 0.280385 0.955766 0.44923l0.506536-1.066282c130.612496-64.184706 282.967134-67.32932 418.467954-8.314347l40.280321 17.527154V206.898797l-17.30305-7.513099z m-40.223016 586.20183c-122.356478-42.639037-254.093584-41.402886-373.920454 2.698454V353.873926h-57.54244v434.412056c-119.82687-44.101339-251.590582-45.281209-373.918407-2.698454V244.958548c131.147684-51.486525 276.128393-45.966823 401.208906 15.477476l0.533141 1.066282c0.280385-0.153496 0.619099-0.266059 0.955766-0.421601 0.280385 0.154519 0.619099 0.268106 0.955767 0.421601l0.506535-1.066282c125.050837-61.444298 270.019267-66.964 401.223232-15.477476v540.62898z" fill="#00007f" p-id="6084"></path><path d="M195.597426 526.439845h172.580245V325.09759h-172.580245v201.342255z m57.527089-143.802886h57.52709v86.275796H253.124515v-86.275796zM195.597426 612.727921h172.580245v57.52709h-172.580245zM627.060319 325.09759h230.104265v57.539369H627.060319zM684.587409 468.912755h172.577175v57.52709H684.587409zM627.060319 612.727921h230.104265v57.52709H627.060319z" fill="#00007f" p-id="6085"></path></svg>